<?xml version="1.0" encoding="UTF-8"?>
<svg id="Calque_1" data-name="Calque 1" xmlns="http://www.w3.org/2000/svg" viewBox="0 0 989.81 989.81">
  <defs>
    <style>
      .cls-1 {
        fill: #f79e38;
      }

      .cls-1, .cls-2, .cls-3, .cls-4, .cls-5, .cls-6, .cls-7, .cls-8, .cls-9, .cls-10, .cls-11, .cls-12, .cls-13, .cls-14, .cls-15, .cls-16, .cls-17, .cls-18, .cls-19, .cls-20, .cls-21, .cls-22, .cls-23, .cls-24, .cls-25, .cls-26, .cls-27, .cls-28, .cls-29, .cls-30, .cls-31, .cls-32, .cls-33, .cls-34, .cls-35, .cls-36, .cls-37, .cls-38, .cls-39, .cls-40, .cls-41, .cls-42, .cls-43, .cls-44, .cls-45, .cls-46, .cls-47, .cls-48, .cls-49, .cls-50, .cls-51, .cls-52, .cls-53, .cls-54, .cls-55, .cls-56, .cls-57, .cls-58, .cls-59, .cls-60, .cls-61, .cls-62, .cls-63, .cls-64, .cls-65, .cls-66, .cls-67, .cls-68, .cls-69, .cls-70, .cls-71, .cls-72, .cls-73, .cls-74, .cls-75, .cls-76, .cls-77 {
        stroke-width: 0px;
      }

      .cls-2 {
        fill: #f28239;
      }

      .cls-3 {
        fill: #fefefe;
      }

      .cls-4 {
        fill: #f59037;
      }

      .cls-5 {
        fill: #fcc724;
      }

      .cls-6 {
        fill: #f79f34;
      }

      .cls-7 {
        fill: #fcc824;
      }

      .cls-8 {
        fill: #fde98f;
      }

      .cls-9 {
        fill: #faaf2f;
      }

      .cls-10 {
        fill: #f69835;
      }

      .cls-11 {
        fill: #eb613c;
      }

      .cls-12 {
        fill: #ed6a3b;
      }

      .cls-13 {
        fill: #fbbe29;
      }

      .cls-14 {
        fill: #f79a35;
      }

      .cls-15 {
        fill: #fcc923;
      }

      .cls-16 {
        fill: #fab32e;
      }

      .cls-17 {
        fill: #fdcd21;
      }

      .cls-18 {
        fill: #fdea92;
      }

      .cls-19 {
        fill: #fce6cb;
      }

      .cls-20 {
        fill: #f9d6cd;
      }

      .cls-21 {
        fill: #f9a831;
      }

      .cls-22 {
        fill: #f0783a;
      }

      .cls-23 {
        fill: #fcc426;
      }

      .cls-24 {
        fill: #fab62d;
      }

      .cls-25 {
        fill: #fcc128;
      }

      .cls-26 {
        fill: #ee6e3b;
      }

      .cls-27 {
        fill: #fcc227;
      }

      .cls-28 {
        fill: #ec663c;
      }

      .cls-29 {
        fill: #fcc625;
      }

      .cls-30 {
        fill: #fcc526;
      }

      .cls-31 {
        fill: #f69436;
      }

      .cls-32 {
        fill: #ed6b3b;
      }

      .cls-33 {
        fill: #f8a633;
      }

      .cls-34 {
        fill: #f38638;
      }

      .cls-35 {
        fill: #fac162;
      }

      .cls-36 {
        fill: #f9c69b;
      }

      .cls-37 {
        fill: #fdd01e;
      }

      .cls-38 {
        fill: #fcc028;
      }

      .cls-39 {
        fill: #f9aa30;
      }

      .cls-40 {
        fill: #f58f37;
      }

      .cls-41 {
        fill: #ec643c;
      }

      .cls-42 {
        fill: #fbfbf2;
      }

      .cls-43 {
        fill: #ec673c;
      }

      .cls-44 {
        fill: #f8a033;
      }

      .cls-45 {
        fill: #fcca23;
      }

      .cls-46 {
        fill: #f8a532;
      }

      .cls-47 {
        fill: #fdcf1f;
      }

      .cls-48 {
        fill: #f9a931;
      }

      .cls-49 {
        fill: #fdd31c;
      }

      .cls-50 {
        fill: #f79d34;
      }

      .cls-51 {
        fill: #f8a233;
      }

      .cls-52 {
        fill: #f8ae67;
      }

      .cls-53 {
        fill: #fccb22;
      }

      .cls-54 {
        fill: #f9ad30;
      }

      .cls-55 {
        fill: #fdde53;
      }

      .cls-56 {
        fill: #ef723b;
      }

      .cls-57 {
        fill: #f8a632;
      }

      .cls-58 {
        fill: #fbba2a;
      }

      .cls-59 {
        fill: #f0763a;
      }

      .cls-60 {
        fill: #f17d3a;
      }

      .cls-61 {
        fill: #fdcc21;
      }

      .cls-62 {
        fill: #f17c3a;
      }

      .cls-63 {
        fill: #f28139;
      }

      .cls-64 {
        fill: #ef733b;
      }

      .cls-65 {
        fill: #f48b38;
      }

      .cls-66 {
        fill: #fbe2cd;
      }

      .cls-67 {
        fill: #f69636;
      }

      .cls-68 {
        fill: #f0773a;
      }

      .cls-69 {
        fill: #f69935;
      }

      .cls-70 {
        fill: #fab02f;
      }

      .cls-71 {
        fill: #fbb92b;
      }

      .cls-72 {
        fill: #ee6f3b;
      }

      .cls-73 {
        fill: #f69536;
      }

      .cls-74 {
        fill: #f79e34;
      }

      .cls-75 {
        fill: #ef713b;
      }

      .cls-76 {
        fill: #ec633c;
      }

      .cls-77 {
        fill: #f8a133;
      }
    </style>
  </defs>
  <path class="cls-49" d="M363.93,989.81c-2.85-2.24-6.48-1.93-9.71-2.93-18.05-5.6-30.78-21.63-31.36-39.83-1.1-2.72.1-4.35,2.72-4.48,7.06-.37,14.15-1.15,21.17.52,2.09,1.22,2.46,3.43,3.12,5.48,2.61,8.18,8.3,12.54,16.71,13.64,5.45.71,10.91,1.08,16.42,1.08,74.06-.04,148.12-.05,222.17.01,6.02,0,11.94-.87,17.9-1.32,7.56-.57,12.3-5.25,16.36-10.98,2.88-2.19,6.26-1.73,9.52-1.76,4.12-.03,8.25-.28,12.35.18,2.02.22,4.67.28,3.68,3.71-2.81,12.31-9.04,22.37-19.87,29.13-6.43,4.02-13.67,5.87-21.18,6.62-2.49.87-5.07.21-7.6.41-81.41,0-162.83,0-244.23,0-2.38.25-4.85-.57-7.18.51h-1Z"/>
  <path class="cls-70" d="M7.87,646.1c-3.49-4.35-4.58-9.67-6.07-14.86-.52-1.8-.08-3.97-1.8-5.37v-4c.99-1.1-.03-3.18,1.86-3.85,7.81-.92,15.61-1.53,23.38.37,2.09,1.6,2.09,4.03,2.55,6.29,1.82,8.83,7.28,14.09,16.1,15.42,5.1.77,10.23,1.21,15.41,1.21,78.4-.04,156.81-.03,235.21-.03,2.33,0,4.68-.2,6.98.22,1.46.26,3.59.01,3.33,2.61-2.83,2.03-6.1,1.36-9.2,1.36-90.27.04-180.53.04-270.8,0-5.66,0-11.3.16-16.94.62Z"/>
  <path class="cls-14" d="M0,488.9v-17c1.1-4.34.2-8.77.53-13.14.13-1.75-.53-3.61.61-5.25,8.05-1.87,16.08-2.07,24.1.16.65.8,1.07,1.73,1.11,2.73.45,9.95.41,19.91.02,29.87-.04,1-.44,1.94-1.05,2.76-6.25,2.94-12.87.92-19.31,1.43-2.11.17-4.28,0-6.01-1.56Z"/>
  <path class="cls-74" d="M0,488.9h24.83c.34.35.88.6.94,1.12,1.08,9.03,1.87,18.06-.47,27.03-8.44,2.17-16.88,2.54-25.3-.16v-27.99Z"/>
  <path class="cls-21" d="M0,592.88v-26.99c1.45-1.33,3.27-1.65,5.1-1.53,6.7.43,13.54-1.4,20.1,1.26,1.45,1.85,1.5,4.06,1.36,6.2-.47,7.07,1.38,14.28-1.25,21.22-8.45,2.19-16.88,2.54-25.3-.16Z"/>
  <path class="cls-54" d="M0,592.88h24.94c1.11.93,1.44,2.23,1.5,3.56.27,6.29.27,12.58,0,18.87-.06,1.33-.39,2.63-1.5,3.56-7.96,0-15.93,0-23.89,0-1.22-6.2-.16-12.46-.55-18.68-.13-2.11.54-4.28-.5-6.32v-1Z"/>
  <path class="cls-46" d="M24.83,565.89c-8.28,0-16.55,0-24.83,0v-25c1.45-1.33,3.27-1.65,5.1-1.53,6.7.44,13.55-1.41,20.1,1.27,2.07,8.45,2.63,16.88-.38,25.26Z"/>
  <path class="cls-51" d="M24.83,540.89c-8.28,0-16.55,0-24.83,0v-24c8.28,0,16.55,0,24.83,0,1.19.87,1.53,2.18,1.6,3.52.29,5.65.29,11.31,0,16.96-.07,1.33-.41,2.65-1.6,3.52Z"/>
  <path class="cls-20" d="M366.87.79c0-.26.02-.53.06-.79h250.95c.02.27.04.54.06.82-2.59,2.61-5.93,1.78-8.99,1.78-51.25.06-102.5.04-153.74.04-26.79,0-53.58.03-80.37-.04-2.74,0-5.74.63-7.97-1.82Z"/>
  <path class="cls-55" d="M370.83,988.93c12.48-.04,24.96-.12,37.44-.12,69.56.02,139.13.05,208.69.08.28.23.36.44.24.63-.11.19-.21.28-.32.28h-245.95c-.3-.16-.41-.34-.34-.55.07-.22.15-.32.24-.32Z"/>
  <path class="cls-19" d="M989.81,569.89c-.29.04-.57.05-.86.04-1.75-1.48-1.67-3.55-1.68-5.52-.04-6.82-.19-13.64.07-20.45-.18-10.67-.2-21.34,0-32-.18-10.67-.2-21.33,0-32-.19-11.01-.2-22.02,0-33.03-.26-7.87-.12-15.73-.07-23.6.01-1.94-.03-3.99,1.68-5.44.29,0,.59.02.88.04v151.97Z"/>
  <path class="cls-52" d="M1.05,453.91c-.72,5.98,1.24,12.11-1.05,18v-72.99c.68-.3,1.21-.13,1.6.5,1.87,6.52.61,13.18.87,19.77.28,9.71.09,19.42.1,29.13,0,1.98-.08,3.98-1.51,5.58Z"/>
  <path class="cls-35" d="M0,593.88c2.09,3.71.72,7.73.94,11.6.26,4.45.09,8.93.1,13.4-.12,1.08.17,2.3-1.05,3v-27.99Z"/>
  <path class="cls-36" d="M.93,398.87c-.31.03-.62.05-.93.06v-23c.63-.31,1.15-.17,1.54.41,1.4,2.88.78,5.96.89,8.97-.34,4.54,1.41,9.31-1.5,13.56Z"/>
  <path class="cls-66" d="M.88,375.87c-.29,0-.59.03-.88.06v-10c.29-.04.57-.05.86-.04,2.35,3.32,2.34,6.65.02,9.99Z"/>
  <path class="cls-18" d="M616.88,989.81c0-.31.03-.61.07-.91,2.33,0,4.65,0,6.98-.01-.11.3-.13.61-.05.93h-7Z"/>
  <path class="cls-8" d="M370.83,988.93c.05.29.08.58.1.87h-6c1.72-1.96,3.92-.67,5.9-.87Z"/>
  <path class="cls-34" d="M676.85,319.01c9.86,3.76,20.16,3.31,30.45,3.32,76.88.12,153.77.3,230.65.44,16.78.03,31.49,4.56,41.95,18.74,2.98,4.04,4.53,8.7,6.14,13.36-1.51,1.66-3.56,1.56-5.5,1.58-6.9.05-13.8.02-20.69.37-1-.19-1.96-.56-2.69-1.23-5.71-5.2-12.66-6.12-19.99-6.12-79.05.03-158.1.04-237.15,0-10.22,0-20.23-1.36-29.86-5.01-8.7-3.3-15.55-8.88-20.65-16.61-1.36-2.06-2.9-4.16-1.9-6.91,1.57-1.55,3.61-1.48,5.57-1.49,7.9-.04,15.81.02,23.7-.43Z"/>
  <path class="cls-11" d="M366.87.79c1.33.07,2.65.2,3.98.2,81.04,0,162.07,0,243.11,0,1.33,0,2.65-.11,3.98-.17,11.94.84,23.37,3.22,32.91,11.14,3.57,2.96,6.34,6.53,8.14,10.82-.56,3.41-3.45,2.68-5.49,2.74-7.99.26-15.99.15-23.99.1-87.97-.49-175.94-.11-263.91-.16-9.83,0-19.66.24-29.48.08-2.51-.04-5.59.29-6.15-3.48,7.69-12.85,19.59-18.91,33.94-21,.98-.14,1.97-.19,2.96-.27Z"/>
  <path class="cls-76" d="M329.97,22.06c1.41,2.76,4.01,1.9,6.22,1.9,38.47.04,76.93.03,115.4.03,67.11,0,134.22,0,201.33-.04,2.04,0,4.38.89,6.08-1.18,4.76,5.88,5.63,13.08,6.9,20.15,1.08,2.83.57,5.15-2.79,5.32-7.02.37-14.09,1.14-21.07-.55-2.25-1.36-2.58-3.77-3.16-6-1.88-7.19-6.55-11.34-13.72-12.93-3.59-.8-7.2-1.24-10.89-1.24-80.93.01-161.86,0-242.78.02-11.95,0-17.82,4.17-22.2,15.54-1.37,2.81-.83,5.82-.97,8.77-.11,2.26.4,4.68-1.43,6.58-8.01,1.67-16.01,2.09-23.98-.22-.76-4.83-.64-9.66-.07-14.49.16-7.96,2.65-15.14,7.14-21.67Z"/>
  <path class="cls-2" d="M676.85,319.01c-2.36,1.79-5.09,1.95-7.91,1.94-7.06-.04-14.12,0-21.18.01-2.92-.49-3.33-3.03-3.98-5.17-2.14-7.04-3.49-14.25-3.49-21.62-.05-77.93-.03-155.87,0-233.8,0-2.47-.32-5.04,1.34-7.21,3.36.4,2.7,3.19,2.74,5.15.18,7.88.25,15.78-.01,23.66.2,15.97.22,31.94,0,47.92.19,12.35.21,24.69,0,37.04.19,13.32.22,26.65,0,39.97.19,12.94.22,25.88,0,38.81.21,9.97-.01,19.95.11,29.93.07,5.25.49,5.63,5.75,5.73,3.66.07,7.32-.03,10.98.04,2,.04,4.02.05,5.63,1.54.42,7.88-.14,15.83,1.98,23.57,1.38,5.02,3.44,9.57,8.05,12.5Z"/>
  <path class="cls-12" d="M642.93,129.97c0-16,0-31.99,0-47.99,5.55-3.11,11.57-1.04,17.36-1.53,2.25-.19,4.64-.19,6.52,1.54,0,16,0,31.99,0,47.99-5.55,3.12-11.57,1.05-17.36,1.54-2.26.19-4.64.19-6.52-1.54Z"/>
  <path class="cls-56" d="M642.93,206.95c0-13.33,0-26.66,0-39.99,5.55-3.1,11.57-1.04,17.36-1.53,2.26-.19,4.64-.19,6.52,1.54,0,13.33,0,26.66,0,39.99-5.55,3.12-11.57,1.05-17.36,1.54-2.26.19-4.64.19-6.52-1.54Z"/>
  <path class="cls-22" d="M642.93,206.95c7.96,0,15.92,0,23.88,0,0,13,0,25.99,0,38.99-5.55,3.12-11.58,1.05-17.36,1.54-2.26.19-4.64.19-6.52-1.55,0-13,0-25.99,0-38.99Z"/>
  <path class="cls-26" d="M666.82,166.97c-7.96,0-15.92,0-23.88,0,0-12.33,0-24.66,0-36.99,7.96,0,15.92,0,23.88,0,0,12.33,0,24.66,0,36.99Z"/>
  <path class="cls-62" d="M642.93,245.94c7.96,0,15.92,0,23.89,0,0,12.33,0,24.66,0,36.99-6.66,0-13.33-.12-19.99.05-3.09.08-4.04-1.07-4-4.07.14-10.99.08-21.99.1-32.98Z"/>
  <path class="cls-41" d="M666.82,81.98c-7.96,0-15.92,0-23.88,0-.02-8.07-.01-16.14-.07-24.22-.01-1.6.45-3.32-.72-4.76-2.03-1.92-1.85-3.93-.27-6.01,6.58,0,13.16-.12,19.73.05,3.1.08,4.77-.74,4.29-4.11,1.68,5.48,1.04,11.13,1.1,16.72.07,7.44-.1,14.89-.17,22.33Z"/>
  <path class="cls-40" d="M988.64,384.92c0,10.66,0,21.33,0,31.99-1.11,1.18-2.58,1.55-4.07,1.47-7-.37-14.14,1.49-21-1.24-.98-1.23-1.24-2.71-1.27-4.21-.17-7.96-.15-15.92-.01-23.87.03-1.5.26-2.98,1.18-4.25,6-2.9,12.39-.99,18.59-1.44,2.27-.16,4.7-.28,6.58,1.55Z"/>
  <path class="cls-65" d="M988.64,384.92c-8.22,0-16.44,0-24.67,0-1.67-1.31-1.6-3.23-1.58-5.03.08-7.34.14-14.66-2.96-21.57-.35-.77-.22-1.63.29-2.37,8.7-2.14,17.55-.47,26.31-1.08,3.98,9.75,2.63,19.96,2.6,30.05Z"/>
  <path class="cls-31" d="M964,416.92c8.21,0,16.43,0,24.64,0,.1.32.19.64.29.96-.09,9.68-.19,19.35-.28,29.03-1.57,1.58-3.63,1.65-5.6,1.53-6.08-.36-12.28,1.2-18.24-1.1-1.79-1.93-1.29-4.36-1.39-6.64-.29-6.47.57-12.97-.57-19.41-.2-1.61-.32-3.2,1.14-4.37Z"/>
  <path class="cls-16" d="M984.76,638.87c-6.03,16.59-18.75,24.75-35.36,27.88-4.41.83-8.91,1-13.43,1-78.81-.04-157.62-.03-236.42-.02-4.49,0-8.94.16-13.43.89-7.01,1.15-12.47,4.31-16.09,10.49-8.44.09-16.92,1.48-25.26-.96-1.54-2.27-.57-4.51.18-6.68,4.89-14.19,15.1-22.79,29.1-27.17,6.69-2.09,13.57-3.04,20.66-3.03,70.74.08,141.48.13,212.22-.01,16.7-.03,33.66,2.08,49.82-4.42,7.13.83,14.29.3,21.43.5,2.28.06,4.72-.34,6.59,1.53Z"/>
  <path class="cls-61" d="M666.81,854.83c0,16.66,0,33.33,0,49.99-1.74,1.62-3.95,1.69-6.07,1.55-6.02-.42-12.21,1.33-18.08-1.28-1.56-2.02-1.17-4.42-1.18-6.7-.05-11.42-.02-22.85-.03-34.27.32-3.21-.77-6.61,1.27-9.6,8.05-1.93,16.09-2.37,24.09.31Z"/>
  <path class="cls-7" d="M666.81,854.83c-7.96,0-15.93,0-23.89,0-1.42-1.23-1.41-2.93-1.42-4.58-.06-13.41-.07-26.82,0-40.23,0-1.49.08-2.99,1.02-4.27,8.1-2.38,16.2-2.52,24.29.09,0,16.33,0,32.66,0,48.99Z"/>
  <path class="cls-27" d="M666.82,805.84c-7.96,0-15.93,0-23.89,0-1.82-1.7-1.41-3.96-1.43-6.06-.06-8.92-.02-17.84-.04-26.76.5-4.81-1.09-9.79,1.22-14.45,8.07-2,16.12-2.4,24.14.27,0,15.66,0,31.33,0,46.99Z"/>
  <path class="cls-37" d="M642.92,904.83c7.96,0,15.93,0,23.89,0-.02,15.19,1.19,30.4-.94,45.54-.13.94-.59,1.84-.89,2.76-.21-.98-.47-2.16-1.64-2.14-7.8.16-15.65-1.24-23.38.83-1.88-4.72.97-9.09.99-13.67,1.14-8.91.19-17.85.53-26.76.09-2.25-.52-4.7,1.43-6.56Z"/>
  <path class="cls-71" d="M642.92,758.85c-.03,4.67-.06,9.33-.1,14-.71.27-1.25.07-1.62-.59-1.11-2.18-.91-4.54-.91-6.86-.03-22.82,0-45.64-.03-68.46,0-4.69.75-9.3,1.42-13.9.29-2.02.36-4.45,3.04-5.21,6.76.01,13.53-.01,20.29.06,1.73.02,3.7-.62,5.01,1.23-3.81,11.53-2.94,23.46-3.02,35.31-.01,1.81-.12,3.62-.19,5.43-4.28,2.82-9.07,1.38-13.63,1.51-8.73.23-8.73.07-8.74,8.85,0,7.33.03,14.65-.02,21.98-.02,2.32.17,4.71-1.51,6.66Z"/>
  <path class="cls-13" d="M642.92,758.85c-.01-11.49.08-22.99-.11-34.48-.06-3.45.97-4.71,4.52-4.58,6.49.24,12.99.07,19.49.07,0,13,0,26,0,38.99-7.97,0-15.93,0-23.9,0Z"/>
  <path class="cls-39" d="M988.64,573.89c0,11.66,0,23.33,0,34.99-1.11,1.18-2.58,1.55-4.07,1.47-7-.37-14.15,1.49-21.01-1.25-.64-.8-1.06-1.73-1.1-2.73-.44-9.94-.4-19.88-.02-29.82.04-1,.43-1.94,1.03-2.77,5.66-2.93,11.73-1.04,17.6-1.44,2.58-.18,5.37-.51,7.58,1.54Z"/>
  <path class="cls-57" d="M988.64,573.89c-8.22,0-16.44,0-24.66,0-2.03-1.77-1.76-4.21-1.77-6.49-.05-46.68-.06-93.35,0-140.03,0-2.27-.28-4.73,1.85-6.44,1.69,6.8.31,13.71.73,20.55.11,1.8.05,3.62.06,5.43,1.44,1.62,1.52,3.62,1.52,5.61,0,9.1.18,18.2-.09,27.29.17,10.61.21,21.22,0,31.83.19,8.3-.01,16.6.1,24.9.07,5.27.49,5.66,5.69,5.77,3.65.07,7.31-.03,10.96.05,1.98.05,4.02-.03,5.61,1.53.1,8.68.2,17.36.3,26.04-.1,1.32-.2,2.64-.3,3.95Z"/>
  <path class="cls-9" d="M963.98,608.88c8.22,0,16.44,0,24.66,0,.41,10.22.7,20.42-3.89,29.99-7.38,0-14.76-.03-22.14.02-2.16.01-4.26-.05-6.18-1.19-.12-1.41.57-2.54,1.29-3.63,3.59-5.4,4.75-11.4,4.74-17.78,0-2.52-.76-5.31,1.51-7.42Z"/>
  <path class="cls-34" d="M4.86,350.68c4.83-13.34,14.64-21.34,27.77-25.64,4.76-1.56,9.71-2.31,14.74-2.25.83,0,1.67,0,2.5,0,81.63-.16,163.27-.34,244.9-.43,6.47,0,12.56-1.09,18.22-4.26,10.07-.93,20.14-1.26,30.21-.02,1.02,2.92-.64,5.22-1.99,7.43-7.97,13.09-19.96,20.16-34.8,22.67-5.74.97-11.54,1.35-17.39,1.35-73.06-.06-146.12-.07-219.17,0-12.71.01-25.66-1.69-37.76,4.14-7.28-.3-14.57.06-21.84-.25-2.02-.09-4.89.72-5.39-2.72Z"/>
  <path class="cls-68" d="M322.83,43.74l.27,14.24c1.37,1.66,1.41,3.67,1.4,5.66-.01,9.43.18,18.87-.09,28.3.19,13.32.22,26.65,0,39.97.19,13.27.22,26.54,0,39.8.21,9.12,0,18.24.1,27.36.06,5.89.39,6.22,6.17,6.3,3.65.05,7.3-.04,10.95.05,1.98.05,4.01,0,5.66,1.43.38.55.78,1.14.82,1.79.7,11.87.72,23.74,0,35.61-.04.65-.45,1.23-.82,1.79-5.65,2.95-11.73,1.05-17.61,1.46-2.58.18-5.37.51-7.58-1.54,0-5.99-.02-11.98-.02-17.97.07-59.78.14-119.56.23-179.35,0-1.64-.35-3.34.52-4.9Z"/>
  <path class="cls-63" d="M342.84,317.93c-3.77,1.94-7.83,1.01-11.72.91-6.04-.16-12.17,1.16-18.14-.75,6.3-5.28,8.57-12.36,8.87-20.24.19-4.96.17-9.94.24-14.91,1.25-1.31,2.92-1.57,4.56-1.5,6.7.31,13.49-1.18,20.1.98,3.08,4.55,1.43,9.68,1.6,14.55.18,5.33-.83,10.61-2.14,15.78-.52,2.06-.98,4.3-3.38,5.18Z"/>
  <path class="cls-60" d="M346.77,282.94c-8.22,0-16.44,0-24.66,0,0-12.33,0-24.66,0-36.99,8.22,0,16.44,0,24.66,0,1.63,1.3,1.69,3.19,1.72,5.01.13,8.99.13,17.98,0,26.97-.03,1.82-.08,3.71-1.72,5.01Z"/>
  <path class="cls-65" d="M4.86,350.68c1.14,1.7,2.91,1.22,4.49,1.23,6.07.04,12.15-.01,18.22.04,1.57.01,3.35-.51,4.49,1.21-1.13,5.34-4.77,9.78-5.41,15.3-.55,3.99-.23,7.99-.26,11.98-.02,3.9-1.74,6.14-5.66,5.92-6.54-.37-13.28,1.72-19.61-1.44-.08-3.02-.17-6.03-.25-9.05,0-3.33-.01-6.66-.02-9.99.27-5.35,1.36-10.48,4-15.2Z"/>
  <path class="cls-16" d="M7.87,646.1c2.01-2.76,4.99-2.22,7.77-2.22,94.63-.01,189.27,0,283.9-.01,1.83,0,3.67-.02,5.5-.04,1.34-1.39,3.02-1.15,4.63-.83,10.68,2.12,19.92,6.81,26.96,15.32,1.5,1.81,3.12,3.74.29,5.84-2.44,1.39-5.14,1.31-7.79,1.31-95.73-.23-191.46-.07-287.19-.09-3.33,0-6.55-1.09-9.89-.75-10.41-3.11-18.91-8.72-24.19-18.53Z"/>
  <path class="cls-24" d="M32.06,664.63c1.79-1.38,3.86-.73,5.8-.73,97.14-.03,194.29-.04,291.43,0,3.02,0,5.97-.16,8.85-1.09,2.52.03,3.26,2.06,4.1,3.82,3.43,7.15,5,14.8,5.89,22.61.22,1.96.25,4.05-1.76,5.38-8.13.89-16.27,2.19-24.28-.75-.35-2.28-.7-4.55-1.04-6.83-1.84-12.31-7.04-16.89-21.76-19.13-.81-.12-1.63-.21-2.44-.32-1.97-.46-3.98-.23-5.97-.23-80.05-.01-160.09,0-240.14-.03-1.97,0-3.99.43-5.91-.41-4.43.2-8.7-.5-12.77-2.29Z"/>
  <path class="cls-47" d="M346.99,943.81c-6.8,0-13.6.07-20.4-.03-2.41-.04-3.88.58-3.73,3.27-.81-1.35-.79-2.86-.79-4.36,0-17.95.02-35.91.03-53.86.84-.9,1.92-1.4,3.09-1.37,7.35.17,14.81-1.56,22.02,1.19,1.47,2.04,1.31,4.41,1.32,6.72.04,13.95.05,27.9,0,41.84,0,2.29.24,4.7-1.54,6.61Z"/>
  <path class="cls-53" d="M346.77,888.83c-8.22,0-16.44,0-24.66,0,0-15.33,0-30.66,0-45.99.84-.9,1.92-1.4,3.09-1.37,7.35.17,14.81-1.56,22.02,1.19,1.37,1.88,1.3,4.08,1.31,6.23.05,11.15.06,22.29-.01,33.44-.01,2.28.28,4.73-1.76,6.5Z"/>
  <path class="cls-58" d="M322.08,693.86c8.23,0,16.46,0,24.68,0,1.63,1.3,1.69,3.18,1.71,4.99.13,10.78.11,21.56.01,32.33-.01,1.66-.19,3.32-1.2,4.75-5.65,2.96-11.73,1.05-17.61,1.46-2.58.18-5.37.51-7.58-1.54,0-14-.01-27.99-.02-41.99Z"/>
  <path class="cls-38" d="M322.11,735.86c8.22,0,16.44,0,24.66,0,1.49,1.15,1.66,2.84,1.69,4.49.16,10.11.16,20.23,0,30.34-.02,1.5-.26,2.98-1.18,4.25-5.66,2.95-11.73,1.04-17.61,1.45-2.58.18-5.37.51-7.58-1.54,0-13,0-26,0-38.99Z"/>
  <path class="cls-23" d="M322.1,774.85c8.22,0,16.44,0,24.66,0,1.49,1.15,1.66,2.84,1.69,4.49.16,9.12.16,18.23,0,27.35-.02,1.5-.26,2.98-1.18,4.25-5.66,2.93-11.73,1.04-17.6,1.44-2.58.18-5.37.51-7.58-1.54,0-12,0-24,0-35.99Z"/>
  <path class="cls-5" d="M322.1,810.84c8.22,0,16.44,0,24.66,0,1.49,1.15,1.65,2.86,1.69,4.51.17,7.66.17,15.31,0,22.97-.04,1.66-.2,3.36-1.69,4.51-8.22,0-16.44,0-24.66,0,0-10.67,0-21.33,0-32Z"/>
  <path class="cls-16" d="M44.83,666.92c82.74-.02,165.47-.04,248.21-.04,1.3,0,2.69-.3,3.81.71-4.82.05-9.65.13-14.47.13-76.56,0-153.12,0-229.69-.01-2.63,0-5.33.39-7.86-.79Z"/>
  <path class="cls-42" d="M346.77,842.84c0-10.66,0-21.33,0-31.99,0-12,0-24,0-35.99,0-13,0-26,0-38.99,0-14,0-27.99,0-41.99-.35-11.05-1.93-21.77-8.63-31.06-7.68-12.16-19.26-17.55-33.1-18.97-3.82-1.61-7.86-1.06-11.8-1.06-79.25-.05-158.5-.02-237.76-.08-4.14,0-8.32-.33-12.41-.95-9.69-1.44-15.66-7.73-17.1-17.51-.26-1.8-.68-3.58-1.03-5.36,0-8.67,0-17.33,0-26-.04-9-.08-18-.11-27,0-8.33,0-16.66,0-25,0-8,0-16,0-24,0-9.33,0-18.66,0-28,.04-11.66.07-23.33.11-34.99-1.44-1.62-1.52-3.62-1.51-5.61,0-9.76-.19-19.51.09-29.27-.35-11.76.25-23.45,1.86-35.13.77-5.55-.16-11.25.35-16.88.85-5.2,3.17-9.73,6.35-13.86,5.59-4.13,11.87-5.5,18.77-5.43,16.97.19,33.95.08,50.93.06,64.41-.07,128.81-.06,193.22-.27,19.05-.06,35.29-6.16,45.38-23.67,1.07-1.85,2.26-3.69,2.48-5.91,5-11.25,4.16-23.15,3.93-34.99,0-12.33,0-24.66,0-36.99.04-13,.07-25.99.11-38.99-1.44-1.62-1.52-3.63-1.52-5.62,0-9.78-.18-19.55.09-29.32-.19-13.34-.22-26.68,0-40.02-.14-21.24,1.66-42.44,1.12-63.69-.21-8.43,1.23-16.81,1.14-25.25,4.29-12.61,10.69-17.2,24.13-17.2,80.45,0,160.91,0,241.36.01,2.66,0,5.35,0,7.97.4,13.49,2.02,17.03,5.55,19.91,19.46.09.46.52.85.79,1.27.09,2,.18,4.01.27,6.01-.05,1.66-.15,3.33-.15,4.99,0,78.32-.03,156.63.07,234.95.01,9.66,1,19.26,5.7,28.03,5.91,14.47,17.61,21.55,32.1,24.86,5.84,1.33,11.83,1.75,17.84,1.76,79.46.06,158.93.16,238.39.17,8.9,0,17.31.97,23.64,8.2,5.53,9.05,3.66,19.19,4.25,28.97,0,10.66.01,21.33.02,31.99.02,1.34.04,2.67.06,4.01-.03,50.99-.06,101.97-.09,152.96v34.99c-.06,3.8-.02,7.61-.21,11.41-.33,6.67-2.71,12.52-7.32,17.41-6.45,3.97-13.56,5.05-21.01,5.05-79.2-.03-158.41,0-237.61-.03-14.08,0-27.58,1.98-38.94,11.19-7.63,6.18-12.32,14.24-14.16,23.92-2.15,4.65-2.41,9.73-2.45,14.62-.2,26.8-.05,53.6-.03,80.39.25,30.3.04,60.61.11,90.91-.14,24.99.28,49.98-.22,74.96-.72,4.37-1.45,8.73-2.17,13.1-5.59,12.46-17.07,12.55-28.02,12.75-20.79.37-41.6.11-62.4.11-57.41,0-114.82.02-172.23-.04-3.98,0-7.98-.35-11.92-.87-9.26-1.24-15.39-7.03-17.41-16.11-.29-1.29-.65-2.56-.99-3.84-.08-18.33-.15-36.66-.23-54.99,0-15.33,0-30.66,0-45.99Z"/>
  <path class="cls-31" d="M24.94,418.92c0,11.66,0,23.33,0,34.99-7.96,0-15.93,0-23.89,0,0-11.66,0-23.33,0-34.99,5.55-3.11,11.58-1.05,17.37-1.54,2.26-.19,4.64-.19,6.52,1.54Z"/>
  <path class="cls-10" d="M964.86,479.9c0-11,0-22,0-32.99,7.93,0,15.86,0,23.79,0,0,11,0,22,0,32.99-1.39,1.43-3.23,1.65-5.01,1.51-6.26-.49-12.73,1.63-18.77-1.51Z"/>
  <path class="cls-77" d="M988.65,543.89c-6.32,0-12.65-.25-18.95.09-4.13.23-5.06-1.36-4.96-5.16.24-8.97.1-17.95.12-26.93,5.53-3.1,11.53-1.06,17.3-1.53,2.23-.18,4.63-.27,6.48,1.53v31.99Z"/>
  <path class="cls-50" d="M988.65,511.9c-7.93,0-15.86,0-23.79,0,0-10.66,0-21.33,0-31.99,7.93,0,15.86,0,23.79,0,0,10.66,0,21.33,0,31.99Z"/>
  <path class="cls-40" d="M24.94,418.92c-7.96,0-15.93,0-23.89,0-.04-6.68-.08-13.37-.12-20.05.06-4.65.13-9.3.19-13.95,6.16,0,12.35-.31,18.49.1,4.62.31,5.64-1.45,5.49-5.7-.15-4.08-.93-8.28.62-12.31-.26,17.3-.52,34.6-.78,51.9Z"/>
  <path class="cls-12" d="M347.7,43.05c-.05,18.72-.03,37.44-.17,56.16-.08,10.92-.43,21.84-.65,32.76-5.55,3.12-11.57,1.05-17.36,1.54-2.26.19-4.64.19-6.52-1.55.04-13.33.07-26.66.11-39.99,3.93-2.71,8.38-1.39,12.59-1.49,10.28-.24,9.64.67,9.67-9.87.01-5.48-.03-10.97.02-16.45.02-2.15-.1-4.35,1.39-6.18.71-4.95-.8-10.04.92-14.93Z"/>
  <path class="cls-43" d="M346.78,57.98c.05,9.97-.02,19.95.21,29.92.08,3.44-1.34,4.22-4.43,4.13-6.48-.18-12.97-.06-19.45-.06,0-11.33,0-22.66,0-33.99,7.89,0,15.78,0,23.67,0Z"/>
  <path class="cls-13" d="M642.25,863.82c-.08-25.03-.18-50.06-.23-75.08-.01-5.3.15-10.6.23-15.9.19,0,.38,0,.57,0,.03,11,.06,22,.1,33,0,16.33,0,32.66,0,48.99-.03,3-.07,6-.1,9-.19,0-.38,0-.58,0Z"/>
  <path class="cls-27" d="M642.25,863.82c.19,0,.38,0,.58,0,.03,13.67.07,27.33.1,41-.02,9.71-.01,19.43-.07,29.14,0,1.6.49,3.32-.71,4.75.04-24.97.07-49.93.11-74.9Z"/>
  <path class="cls-72" d="M323,131.97c7.96,0,15.92,0,23.88,0,0,13.33,0,26.66,0,39.99-5.55,3.12-11.57,1.05-17.36,1.54-2.26.19-4.64.19-6.52-1.55,0-13.33,0-26.66,0-39.99Z"/>
  <path class="cls-64" d="M323,171.96c7.96,0,15.92,0,23.88,0,0,11.66,0,23.33,0,34.99-6.66,0-13.33-.12-19.99.05-3.09.08-4.04-1.07-4-4.07.15-10.33.09-20.66.11-30.98Z"/>
  <path class="cls-59" d="M593.87,194.29c1.75,2.79,3.61,5.53,5.22,8.4,3.67,6.53,1.99,11.92-4.82,15.17-6.7,3.19-14.03,4.08-21.27,4.93-19,2.21-38.1,2.87-57.22,3.42-26.45.77-52.85.15-79.25-1.28-11.45-.62-22.88-1.52-34.12-3.98-1.94-.42-3.88-.94-5.74-1.62-8.68-3.16-10.73-8.7-6.21-16.66.73-1.28,1.59-2.48,2.39-3.72,5.54-2.16,11.01-2.83,16.32.66q.45,5.99,6.89,6.76c23.85,2.88,47.81,3.37,71.8,3.12,11.49-.12,22.99.13,34.48-.06,16.98-.28,33.92-1.33,50.79-3.41,6.83-.84,6.82-.99,5.36-7.56,1.1-3.03,3.8-2.72,6.2-2.86,3.11-.17,6.28.18,9.19-1.31Z"/>
  <path class="cls-25" d="M395.95,795.76c-1.97-3.26-4.04-6.47-5.89-9.8-3.86-6.93-2.01-12.58,5.38-15.69,8.69-3.66,18.03-4.47,27.28-5.34,34.15-3.23,68.4-3.71,102.65-2.64,20.74.65,41.55,1.01,61.98,5.41.97.21,1.94.45,2.89.74,11.49,3.46,13.64,9.74,6.74,19.6-5.25.13-10.66,1.39-15.45-2.02-1.32-2.42-3.47-3.33-6.13-3.66-12.55-1.58-25.15-2.68-37.79-2.97-15.96-.37-31.91-1.56-47.9-1.05-24.27.77-48.56,1.04-72.71,4.02-.99.12-1.99.2-2.97.37-5.05.85-5.24,1.17-3.29,5.93.51,1.25,1.05,2.46.61,3.84-1.03,1.61-2.73,1.72-4.33,1.68-3.8-.09-7.42.87-11.09,1.59Z"/>
  <path class="cls-47" d="M532.87,899.5c-5.08,9.1-10.04,18.27-15.27,27.28-3.77,6.49-8.75,11.91-16.29,13.9-11.01,2.9-20.14-.7-26.98-9.47-7.39-9.48-12.27-20.55-18.4-30.82-2.47-4.13-4.64-8.43-6.95-12.66.35-2.63,2.56-2.15,4.14-2.22,3.57-.16,7.14-.31,10.7-.45,2.81.59,3.8,3.06,5.04,5.14,4.5,7.56,8.88,15.19,13.05,22.93,1.26,2.34,2.62,4.62,4.35,6.66,6.39,7.52,11.61,7.34,16.93-.92,3.69-5.71,6.84-11.76,10.2-17.68,1.3-2.29,2.43-4.81,5.42-5.47,3.83-.28,7.55.7,11.33.94,1.39.09,3.68.13,2.73,2.84Z"/>
  <path class="cls-28" d="M451.94,96.06c6.76-12.9,13.7-25.75,21.92-37.75,10.18-14.85,28.02-15.57,39.95-2.07,6.2,7.03,10.1,15.56,14.42,23.79,2.12,4.04,4.51,7.95,6.77,11.92-4.48,4.19-9.9,2.08-14.97,2.24-2.42-.4-3.52-2.31-4.62-4.17-2.54-4.28-5.05-8.57-7.37-12.98-1.94-3.68-4.06-7.26-6.86-10.34-4.22-4.63-9.19-4.63-13.22.19-4.93,5.89-7.93,13-11.85,19.54-1.96,3.27-3.85,6.59-5.85,9.83-1.05,1.7-2.05,3.47-4.33,3.79-3.59.08-7.11-.6-10.67-.83-1.61-.11-4.38.12-3.31-3.17Z"/>
  <path class="cls-4" d="M138.94,423.78c19.36-11.23,38.68-22.54,58.11-33.66,6.1-3.49,12.01-1.13,14.86,5.95,3.71,9.21,4.7,18.99,5.15,28.82-5.19,2.27-10.28,2.74-15.19-.73-1.8-3.65-1.89-7.7-2.55-11.61-.55-3.27-1.83-3.79-4.67-2.16-8.36,4.8-16.6,9.82-25.05,14.45-2.94,1.61-5.57,4.5-9.53,3.43-5.05-1.59-10.24-.62-15.36-.89-1.82-.1-3.68.1-5.41-.64-1.77-.76-1.69-1.8-.35-2.96Z"/>
  <path class="cls-4" d="M757.82,427.91c.08-1.69.16-3.37.25-5.06.77-1.6-.24-3.47.75-5.04-.04-7.24,1.38-14.25,3.81-21,2.93-8.16,8.61-10.22,16.11-5.98,16.66,9.42,33.25,18.97,49.87,28.47,2.1,1.2,3.62,3.33,6.16,3.81-1.04,3.06-3.74,2.08-5.82,2.21-5.71.36-11.52-.62-17.1,1.37-2.49.51-4.47-.71-6.51-1.86-8.23-4.63-16.24-9.65-24.55-14.14-3.97-2.14-4.69-1.82-5.32,2.69-.64,4.57-.48,9.28-2.4,13.63-4.88,3.73-10.02,3.12-15.24.9Z"/>
  <path class="cls-48" d="M833.71,567.86c-18.76,10.91-37.45,21.93-56.31,32.66-5.31,3.02-10.94.45-13.6-5.92-3.41-8.18-4.7-16.86-5.01-25.7,5.16-2.26,10.23-2.7,15.13.7,2.02,3.71,1.94,7.96,2.89,12.31,8.26-4.55,16.11-9.17,24.03-13.68,2.85-1.63,5.41-4.71,9.41-3.43,2.7,2.21,5.94,1.42,9,1.7,4.82.45,9.85-1.33,14.45,1.36Z"/>
  <path class="cls-48" d="M217.68,563.98c-.47,9.49-1.53,18.9-4.34,28-2.96,9.59-8.8,11.87-17.41,6.92-16.72-9.6-33.39-19.3-50.08-28.96,1.39-2.83,4.09-2.33,6.49-2.5,5.24-.37,10.56.72,15.72-.94,3.08-1.05,5.41.76,7.83,2.13,7.6,4.27,15.06,8.81,23.13,13.04.76-4.2,1.37-7.92,1.69-11.7.15-1.71-.26-3.83,2.22-4.4,5.12,1.4,10.16,2.05,14.74-1.6Z"/>
  <path class="cls-44" d="M92,538.89c-13.38-7.21-26.77-14.45-39.5-22.76-7.88-5.14-12.79-12.3-11.58-22.38,5.01,1.09,9.98,1.65,14.71-1.08.15.08.41.14.43.24,1.33,8.33,8.05,11.46,14.34,15.13,14.2,8.27,28.84,15.78,42.52,24.94,1.6,1.07,3.76,1.71,3.45,4.33-1.04,1.92-2.94,2.01-4.72,2.01-6.56.02-13.13.53-19.66-.43Z"/>
  <path class="cls-14" d="M55.74,492.9c-2.38,3.9-11.78,4.44-14.82.85,0-9.66,5.35-16.3,12.97-21,11.16-6.87,22.71-13.12,34.09-19.63,5.42,2.03,11.08,1.16,16.66,1.35,2.13.07,4.3-.17,6.36.56,2.71,2.83-.29,3.63-1.84,4.54-7.16,4.21-14.39,8.3-21.6,12.42-6.34,3.63-12.63,7.37-19.12,10.73-4.94,2.56-8.78,6.41-12.72,10.17Z"/>
  <path class="cls-32" d="M518.91,92.98c5.37-.25,10.82.75,16.09-1.03,8.59,14.79,17.19,29.58,25.76,44.39,1.8,3.12,3.48,6.31,5.22,9.47-.22,2.91-2.61,2.38-4.33,2.51-3.22.25-6.47.14-9.68.44-2.56.03-3.79-1.72-4.89-3.66-8.83-15.66-18.19-31-26.89-46.73-.89-1.61-2.78-3.14-1.28-5.39Z"/>
  <path class="cls-69" d="M882.82,451.09c14.13,7.35,28.03,15.13,41.39,23.81,3.37,2.19,5.78,5.39,7.63,8.98-.01,3.08-2.39,3.22-4.48,3.38-3.78.29-7.58.23-11.36-.01-1.87-.06-3.52-.82-5.11-1.75-16.27-9.57-32.94-18.45-49.08-28.26-1.41-.86-4.24-1.28-2.48-4.19,2.46-1.83,5.34-1.5,8.14-1.57,5.12-.14,10.25.28,15.35-.38Z"/>
  <path class="cls-46" d="M92,538.89c6.42-2.05,13.03-.49,19.53-1.01,1.63-.13,3.81.86,4.45-1.81,2.19-1.14,3.88.35,5.5,1.29,14.82,8.56,29.83,16.8,44.24,26.05,1.39.89,2.94,1.65,3.25,3.53-1.23,2.49-3.56,1.79-5.61,1.96-5.83.47-11.78-1.14-17.5,1.05-18.2-9.93-36.14-20.31-53.86-31.06Z"/>
  <path class="cls-32" d="M451.94,96.06c.17,1.42,1.06,2.02,2.38,1.89,4.31-.41,8.49.69,12.73,1.07,1.17,1.98-.15,3.49-1.03,5-7.97,13.72-15.83,27.5-23.89,41.17-1.32,2.25-2.44,4.76-5.19,5.78-3.41.72-6.86.58-10.28.28-2.04-.18-4.39-.33-4.71-3.22,10-17.32,19.99-34.65,29.99-51.97Z"/>
  <path class="cls-73" d="M112.28,456.04c-6.23-.04-12.45-.06-18.68-.15-2.27-.03-4.72.14-5.6-2.77,16.98-9.78,33.96-19.57,50.94-29.35-.91,2.69,1.08,2.12,2.45,2.13,4.99.03,9.98.03,14.97,0,1.87,0,3.72-.05,4.63,2.06,0,2.6-2.37,3.03-3.94,3.96-13.13,7.86-26.48,15.32-39.68,23.05-1.52.89-3.11,2.1-5.09,1.05Z"/>
  <path class="cls-75" d="M550.52,148.1c3.18-1.79,6.66-.88,10.02-1.15,1.85-.15,3.95.73,5.45-1.14,9.78,15.88,19.09,32.03,27.88,48.48.15,2.71-1.69,2.56-3.59,2.71-3.7.28-7.55-1.01-11.1.95-2-.22-2.57-1.95-3.39-3.34-8.1-13.75-16.1-27.55-24.04-41.39-.89-1.55-2.02-3.13-1.23-5.12Z"/>
  <path class="cls-56" d="M421.95,148.03c4.88,3.81,10.55,1.14,15.8,1.93,1.08,2-.26,3.54-1.13,5.05-8.17,14.12-16.34,28.23-24.57,42.31-.7,1.2-1.08,2.95-3.12,2.64-5.25-2.1-10.73-.49-16.08-1.03,7.07-12.56,14.1-25.13,21.22-37.66,2.54-4.47,5.25-8.83,7.89-13.24Z"/>
  <path class="cls-73" d="M882.82,451.09c-.63,2.67-2.8,1.7-4.43,1.8-6.51.41-13.1-.87-19.54,1.02-2.59.89-4.49-.81-6.41-1.93-12.78-7.43-25.58-14.82-38.43-22.13-1.54-.88-3.45-1.52-3.38-3.85,3.98-2.8,8.54-1.87,12.94-2.13,3.73-.22,7.56.99,11.18-.77,13.9,7.14,26.88,15.86,40.41,23.64,2.54,1.46,5.1,2.9,7.65,4.34Z"/>
  <path class="cls-29" d="M395.95,795.76c1.56-3.03,4.62-2.53,7.19-2.84,2.6-.32,5.28-.1,7.92-.11,2.48.13,3.16,2.25,4.09,3.9,7.13,12.61,14.61,25.02,21.62,37.7,1.04,1.88,3.15,3.86.56,6.16-4.78,1.32-9.81.2-14.58,1.55-9.32-15.23-18.33-30.64-26.81-46.36Z"/>
  <path class="cls-45" d="M422.76,842.12c.95-2.32,2.93-2.31,4.98-2.3,3.47.02,6.94-.04,10.42-.06,2.34-.04,2.94,1.91,3.79,3.45,6.94,12.51,14.37,24.72,21.41,37.17.93,1.65,2.52,3.24,1.36,5.46-3.45,1.37-7.06.89-10.62,1.02-1.73.06-3.62-.64-5.12.87-9.1-14.99-17.9-30.16-26.22-45.6Z"/>
  <path class="cls-51" d="M920.65,517.86c-12.01,8.01-24.98,14.35-37.34,21.77-3.12,1.87-6.39,3.48-9.58,5.21-6.07-.48-12.14-.49-18.22-.55-1.92-.02-4.05.1-5.11-2.13-.13-2.71,2.1-3.61,3.87-4.63,12.58-7.28,25.11-14.65,37.8-21.72,1.57-.87,3.1-2.03,5.08-1.2,4.47,1.77,9.13.53,13.68.87,3.41.26,6.97-.18,9.82,2.38Z"/>
  <path class="cls-46" d="M850.84,541.11c.54,2.41,2.49,1.74,4.03,1.76,4.14.07,8.29.14,12.43-.02,2.45-.1,4.56.42,6.42,1.99-13.14,8.02-26.44,15.75-40.01,23.02-6.63,0-13.26.1-19.88-.02-1.88-.04-4.75.56-4.04-3.11-.01-1.89,1.59-2.43,2.81-3.16,11.45-6.78,22.99-13.41,34.57-19.97,1.11-.63,2.29-1.5,3.67-.48Z"/>
  <path class="cls-67" d="M757.82,427.91c3.41,0,6.82-.08,10.22.04,1.93.07,3.52-.27,4.55-2.04,1.44.97,1.62,2.49,1.49,3.98-.89,10.38-1.17,20.81-2.14,31.19-1.2,3.91-.56,7.94-.71,11.91-.13,3.45-1.75,5.2-5.17,5.39-1.33.07-2.66.12-3.99.1-6.69-.12-7.24-.8-6.27-7.74-.09-14.31.09-28.62,2.02-42.83Z"/>
  <path class="cls-15" d="M575.93,824.92c-7.32,13.45-14.65,26.88-23.12,39.66-5.12-.22-10.27.02-15.34-1.05-2.01-1.76-.48-3.4.38-4.83,6.57-10.97,12.58-22.26,19.26-33.17.96-1.57,1.9-3.15,3.83-3.73,3.54-.73,7.12-.56,10.66-.29,2.05.16,4.4.37,4.32,3.41Z"/>
  <path class="cls-30" d="M575.93,824.92c-1.12-2.53-3.4-2.06-5.47-2.08-3.41-.02-6.82,0-10.24,0-1.17-1.16-.2-2.2.31-3.11,5.8-10.47,11.69-20.89,17.82-31.18.74-1.25,1.48-2.67,3.25-2.79,4.92,2.19,10.53-.33,15.38,2.27-6.85,12.4-13.34,24.99-21.05,36.89Z"/>
  <path class="cls-74" d="M920.65,517.86c-7.12-1.32-14.32-.93-21.5-.96-1.44,0-3.24.37-2.38-2.17.06-2.12,1.94-2.47,3.28-3.29,4.09-2.5,8.35-4.73,12.27-7.49,6.92-4.88,7.56-8.64,2.93-15.61-.47-.7-.84-1.42-.74-2.3,4.25-.05,8.51-.12,12.76-.13,1.85,0,3.65,0,4.56-2.05,5.77,9.73,3.42,21.91-5.96,30.32-1.57,1.41-3.48,2.45-5.23,3.67Z"/>
  <path class="cls-6" d="M219.91,489.9c.35,12.03.31,24.06-.22,36.09-.55,6.13-.8,6.41-7.16,6.4-2.74,0-5.65.54-8.01-1.55-1.06-1.61-1.12-3.44-1.13-5.26-.06-13.41-.06-26.83,0-40.24,0-1.66.1-3.32.92-4.82,2.47.16,2.83.14,2.94,3.05.15,3.94,2.06,5.05,5.63,4.89,2.41-.11,4.97-.37,7.03,1.45Z"/>
  <path class="cls-77" d="M756.86,543.89c-1.38-9.57-1.1-19.21-1.07-28.83-.9-3.1-.07-6.28-.46-9.39-.52-4.1,1.63-5.32,5.2-5.33,1.33,0,2.66-.07,3.99-.01,5.54.25,6.49,1.3,6.74,6.91.26,5.79-.66,11.63.67,17.37.71,4.48.48,8.98.4,13.49-.55,6.92-1.81,7.81-10.34,7.35-1.85-.1-3.67-.22-5.13-1.56Z"/>
  <path class="cls-17" d="M537.17,862.84c5.23.4,10.69-1.21,15.64,1.74-6.93,11.48-12.29,23.85-19.94,34.92-.23-1.13-.96-1.76-2.06-1.63-4.43.53-8.67-1.14-13.05-1.09-1.11-1.76-.02-3.18.78-4.57,4.91-8.61,10.02-17.1,14.87-25.75.85-1.53,1.65-3.32,3.77-3.62Z"/>
  <path class="cls-46" d="M205.01,530.9c2.61,0,5.28-.32,7.83.07,4.14.63,6.35-.86,6.84-4.98.11,12.7-.76,25.36-2,37.99-.62,3.38-2.75,4.69-5.94,3.86-2.92-.76-6.7,2.22-8.8-2-2.21-2.55-1.72-5.67-1.36-8.51.78-6.24.8-12.49.89-18.75.04-2.78.03-5.68,2.54-7.68Z"/>
  <path class="cls-14" d="M219.91,489.9c-.16,0-.33,0-.49,0-3.78-.02-7.82.8-11.28-.26-4.81-1.46-.4-6.89-2.96-9.74-.36-.33-.92-.58-.95-1.09-.57-9.78-2.68-19.53-.86-29.38.1-.12.21-.24.32-.36,4.15,4.59,10.5,2.23,15.28,4.83,1.56,11.96.96,23.99.94,35.99Z"/>
  <path class="cls-1" d="M770.62,524.9c-1.74-6.03-.62-12.19-.67-18.27-.03-3.72-1.09-4.92-4.84-4.8-11.06.36-9.03-1.26-9.26,9.24-.03,1.33-.04,2.66-.06,3.99-1.39-9.18-.44-18.41-.54-27.61-.06-5.56-.81-11.18.54-16.71.53,1.96-1.15,5.15,1.4,5.77,3.79.92,7.94.99,11.78-.18,1.34-.41.72-2.36.86-3.65.41-3.92-.88-7.95.79-11.78,2.09,1.72,1.81,4.16,1.82,6.43.07,17.05.07,34.09,0,51.14,0,2.26.28,4.71-1.82,6.43Z"/>
  <path class="cls-73" d="M218.97,453.91c-2.48,0-4.98-.24-7.42.05-4.08.49-7.01-.32-7.4-5.05-1.8-1.4-1.45-3.52-1.85-5.4-1.16-5.49-.61-11.12-1.43-16.64-.22-1.46-.08-2.98,1.35-3.96,1.53,2.78,4.19,1.93,6.52,1.98,2.77.07,5.54,0,8.31,0,1.56,9.61,2.07,19.29,1.91,29.02Z"/>
  <path class="cls-33" d="M756.86,543.89c2.62,0,5.27-.3,7.84.06,5,.7,7.03-1.19,6.19-6.16,2.67.65,2.41,2.97,2.39,4.8-.07,7.97,1.05,15.84,1.65,23.76.13,1.66.26,3.34-1.29,4.54-1.87-3.07-4.91-1.81-7.52-1.97-2.44-.14-4.89-.02-7.33-.02-1.44-8.27-2.14-16.61-1.93-25.01Z"/>
  <path class="cls-67" d="M758.82,417.82c-.15,1.69.61,3.52-.75,5.04-.1-1.73-.26-3.47.75-5.04Z"/>
  <path class="cls-3" d="M408.93,199.96c9.61-16.67,19.22-33.33,28.82-50,10.06-16.81,20.01-33.68,29.3-50.94,4.92-8.43,9.85-16.86,14.77-25.28.92-1.57,1.8-3.17,2.81-4.69,6.47-9.73,13.65-9.85,20.08.06,5.03,7.76,9.49,15.9,14.2,23.87,10,18.68,20.72,36.95,31.6,55.12,9.55,16.62,19.11,33.23,28.66,49.85.77,2.7,3.21,4.62,3.64,7.8-10.92,2.66-22.01,3.35-33.06,4.05-32.36,2.07-64.76,1.98-97.15.92-13.92-.46-27.84-1.36-41.67-3.41-4.44-.66-5.62-1.76-2.73-5.53.38-.5.49-1.21.72-1.82Z"/>
  <path class="cls-3" d="M537.17,862.84c-6.69,11.19-13.43,22.35-19.41,33.94-4.01,6.85-8.01,13.72-12.04,20.56-7.29,12.35-15.04,12.55-22.51.3-6.38-10.47-12.34-21.19-18.48-31.8-8.48-15.57-17.28-30.96-26.56-46.07-8.62-15.89-17.66-31.53-27.09-46.95-1.07-2.05-1.97-4.21-3.24-6.13-1.95-2.93-2.08-4.52,2.15-4.92,7.76-.73,15.47-2.18,23.24-2.71,28.53-1.96,57.1-2.79,85.68-1.96,19.41.56,38.87,1.01,58.12,3.97,2.1.32,7.56-1.17,4.59,4.7-7.13,12.36-14.25,24.73-21.38,37.09-7.68,13.33-15.37,26.66-23.05,39.99Z"/>
  <path class="cls-3" d="M202.22,422.91c.64,8.67,1.29,17.33,1.93,26,.34,10.33.68,20.66,1.02,30.99-.05,17-.1,33.99-.15,50.99-.69,11.65-1.38,23.29-2.07,34.94-.7,4.71-1.43,9.41-2.07,14.12-.4,2.91-1.14,4.01-4.28,2.11-8.33-5.04-16.86-9.74-25.34-14.54-.66-.38-1.52-.4-2.29-.59-17.3-10.92-34.88-21.35-52.99-30.87-17.03-9.93-34.08-19.83-51.09-29.79-5.12-3-10.21-6.11-9.14-13.38,1.76-4.92,5.85-7.53,10.04-9.94,14.1-8.11,28.26-16.12,42.37-24.2,1.43-.82,2.75-1.81,4.12-2.72,16.5-8.9,32.72-18.28,48.71-28.07,11.51-6.52,23.09-12.93,34.5-19.62,3.3-1.93,4.49-1.6,4.85,2.3.38,4.11,1.24,8.17,1.88,12.25Z"/>
  <path class="cls-3" d="M773.64,570.89c-.92-11.03-1.84-22.06-2.75-33.09-.09-4.3-.18-8.6-.27-12.9,0-21.33,0-42.66,0-63.99.66-11.66,1.31-23.33,1.97-34.99.72-5.25,1.64-10.48,2.08-15.76.32-3.86,1.86-3.42,4.39-1.96,9.89,5.75,19.83,11.42,29.76,17.1.56.32,1.21.47,1.82.7,15.78,9.8,31.95,18.94,48.22,27.9,14.8,8.59,29.59,17.2,44.4,25.78,3.73,2.16,7.51,4.24,11.26,6.36,7.67,7.7,7.12,13.43-2.15,19.45-5.06,3.29-10.39,6.17-15.59,9.23-15.31,8.79-30.62,17.59-45.93,26.38-13.68,7.87-27.37,15.74-41.05,23.61-11.12,6.32-22.23,12.64-33.5,19.04-1.69-4.33-1.69-8.7-2.65-12.87Z"/>
</svg>